<?xml version="1.0" standalone="no"?>
<!DOCTYPE svg PUBLIC "-//W3C//DTD SVG 20010904//EN"
 "http://www.w3.org/TR/2001/REC-SVG-20010904/DTD/svg10.dtd">
<svg version="1.0" xmlns="http://www.w3.org/2000/svg"
 width="300.000000pt" height="283.000000pt" viewBox="0 0 300.000000 283.000000"
 preserveAspectRatio="xMidYMid meet">
<metadata>
Created by potrace 1.10, written by Peter Selinger 2001-2011
</metadata>
<g transform="translate(0.000000,283.000000) scale(0.100000,-0.100000)"
fill="#000000" stroke="none">
<path d="M157 2817 c-3 -8 -31 -36 -62 -62 -49 -42 -59 -47 -76 -37 -11 7 -19
8 -19 2 0 -5 8 -14 19 -19 20 -11 52 8 141 88 38 34 42 40 24 41 -12 0 -24 -6
-27 -13z"/>
<path d="M386 2756 c-44 -41 -76 -80 -74 -87 6 -18 63 -38 113 -38 30 -1 53 8
92 35 44 30 58 35 86 30 22 -4 38 -15 45 -30 7 -15 25 -27 54 -35 36 -10 52
-8 103 8 33 10 61 25 63 33 3 15 -128 151 -151 156 -6 2 23 -30 66 -70 42 -41
77 -79 77 -84 0 -7 -31 -12 -80 -13 l-81 -2 -36 40 c-49 55 -84 56 -146 1 -43
-39 -48 -40 -115 -40 -39 0 -73 4 -76 9 -4 5 31 43 76 85 46 42 79 76 73 76
-5 0 -45 -33 -89 -74z"/>
<path d="M990 2743 c0 -49 4 -94 9 -102 8 -13 15 -9 144 95 33 26 16 84 -25
84 -15 0 -17 -3 -8 -19 19 -37 11 -59 -36 -95 -26 -20 -50 -33 -55 -30 -5 3
-9 39 -9 80 0 43 -4 74 -10 74 -6 0 -10 -36 -10 -87z"/>
<path d="M1280 2714 l0 -115 -120 2 c-66 1 -121 -3 -122 -7 -2 -5 44 -10 102
-12 117 -3 139 -7 123 -23 -8 -8 -153 -11 -468 -10 l-457 2 -76 66 -75 65 -55
-6 c-60 -7 -132 -53 -132 -84 0 -11 3 -13 8 -5 4 6 25 25 46 42 32 25 48 31
88 31 47 0 54 -3 123 -65 l72 -65 482 0 481 0 0 150 c0 93 -4 150 -10 150 -6
0 -10 -45 -10 -116z"/>
<path d="M1513 2714 c3 -66 2 -125 -1 -130 -4 -5 -27 -10 -52 -12 -25 -2 -70
-15 -100 -29 -30 -14 -58 -25 -62 -25 -5 1 -8 -2 -8 -7 0 -5 -26 -24 -57 -42
-32 -17 -72 -40 -90 -50 -69 -39 -113 -70 -113 -79 0 -6 -98 -10 -267 -10
l-268 -1 -199 -193 -200 -193 65 -60 c124 -116 125 -117 199 -121 62 -4 67 -6
62 -24 -7 -29 -98 -69 -139 -62 l-32 6 -3 -88 -3 -87 -30 -2 c-24 -1 -47 15
-122 83 -51 46 -93 79 -93 74 0 -5 41 -47 91 -92 l91 -84 -35 -18 c-20 -10
-40 -26 -46 -35 -9 -16 -15 -13 -55 27 -27 25 -46 38 -46 30 0 -8 17 -29 37
-46 l37 -31 -23 -56 c-19 -47 -22 -71 -20 -141 4 -80 3 -84 -13 -69 -23 21
-23 5 0 -27 11 -16 17 -45 18 -80 2 -115 26 -398 39 -463 l14 -69 -27 -24
c-15 -13 -35 -26 -44 -29 -18 -6 -25 -25 -10 -25 4 0 26 13 48 30 l41 29 33
-34 c19 -19 39 -35 45 -35 7 0 19 -8 29 -19 13 -14 32 -19 89 -20 69 -1 232
12 308 25 l36 6 -5 -136 -5 -136 29 -41 c47 -68 50 -69 232 -69 142 0 163 -2
158 -15 -8 -22 -1 -19 39 16 29 26 35 38 35 73 0 24 -8 53 -20 71 -20 30 -27
80 -12 89 5 3 44 -18 86 -47 142 -94 161 -106 206 -127 24 -11 64 -26 88 -32
42 -10 149 -6 184 7 13 5 17 -1 21 -32 4 -37 4 -37 5 7 2 43 4 47 38 59 19 7
38 20 42 29 4 10 10 -16 13 -58 l5 -75 2 75 2 75 43 27 c23 15 54 39 70 53 15
14 27 22 27 18 0 -4 4 -2 9 6 17 26 38 -5 46 -66 7 -55 66 -172 92 -180 14 -5
-25 72 -49 98 -23 25 -33 62 -33 133 0 57 1 59 45 97 27 24 52 38 63 35 12 -3
17 2 17 15 0 10 6 19 13 19 8 0 33 13 55 30 23 16 44 30 46 30 3 0 16 10 29
22 13 13 36 32 52 43 74 53 92 68 117 106 15 22 28 44 30 49 3 10 187 42 199
34 5 -3 6 -18 3 -33 -13 -61 43 -155 107 -181 16 -7 54 -11 87 -8 71 5 152 56
152 95 0 23 -1 23 -36 -9 -52 -48 -73 -57 -129 -57 -93 -1 -165 64 -165 147 0
45 17 74 39 67 11 -3 26 4 41 20 32 34 44 32 25 -5 -51 -98 34 -170 124 -103
49 35 101 85 101 95 0 5 -24 -9 -53 -32 -60 -45 -73 -49 -57 -21 20 37 12 78
-19 100 -15 11 -31 18 -35 14 -14 -14 -4 10 18 45 13 20 36 75 50 122 36 114
45 130 73 130 13 0 23 5 23 10 0 6 -11 10 -24 10 -39 0 -40 18 -4 40 l33 20
-32 0 c-18 0 -33 -2 -33 -4 0 -19 -76 -269 -90 -296 -26 -50 -78 -97 -128
-114 -24 -9 -89 -24 -145 -35 -57 -11 -112 -23 -122 -27 -16 -6 -18 -5 -7 7 6
7 12 18 12 23 -1 17 -40 -37 -40 -55 0 -24 -34 -57 -145 -140 -168 -125 -164
-123 -182 -108 -14 12 -15 11 -9 -7 5 -18 -19 -39 -176 -155 -221 -163 -253
-181 -339 -187 -93 -6 -160 16 -275 93 -54 36 -99 65 -101 65 -2 0 -78 52
-168 115 l-166 114 -202 -25 c-111 -14 -247 -28 -303 -31 -89 -5 -105 -3 -142
16 -98 50 -117 95 -131 316 -38 604 -39 584 17 661 38 52 98 80 203 95 l87 13
17 80 c54 264 98 462 105 482 14 35 70 94 110 114 22 11 80 23 146 30 60 7
118 17 129 23 11 5 121 71 245 145 124 74 242 141 264 148 21 8 72 14 112 14
70 0 79 -3 186 -57 61 -32 113 -63 115 -68 2 -6 -3 -19 -10 -29 -13 -17 -19
-15 -118 37 -118 62 -154 71 -228 57 -54 -10 -84 -26 -384 -210 l-168 -102
-112 -14 c-62 -7 -121 -16 -133 -19 -31 -7 -72 -43 -90 -77 -15 -28 -90 -357
-113 -498 -6 -36 -14 -75 -16 -86 -4 -19 -18 -23 -122 -39 -116 -17 -119 -18
-160 -59 -28 -29 -44 -54 -49 -81 -12 -63 34 -722 53 -763 34 -73 93 -88 252
-67 66 8 194 24 286 35 l167 19 179 -122 c373 -254 397 -267 490 -267 77 0
124 24 313 162 442 322 509 376 551 440 6 10 64 27 159 46 205 43 230 63 266
213 12 46 35 127 52 179 26 82 29 106 26 175 -9 172 -108 270 -296 295 -117
16 -112 11 -112 90 0 38 -3 76 -7 85 -5 14 -2 16 18 10 32 -10 39 -22 39 -72
0 -46 2 -47 81 -58 l47 -7 161 162 c89 90 160 164 158 166 -2 2 -16 -10 -32
-26 l-29 -30 -218 0 -218 0 0 -62 0 -63 -25 60 c-29 73 -86 127 -151 145 -33
9 -85 11 -187 7 l-142 -7 -22 58 c-12 31 -25 75 -28 97 -10 59 -41 107 -90
140 -49 33 -56 45 -26 45 11 0 38 -19 60 -42 23 -22 41 -37 41 -31 0 5 -24 32
-52 60 -29 27 -60 59 -68 70 -20 28 -152 97 -222 118 l-58 16 -1 77 c-2 134
-4 160 -13 169 -5 4 -6 -44 -3 -113z m201 -345 c112 -59 143 -81 164 -112 32
-48 35 -124 8 -176 -17 -32 -17 -33 6 -58 l23 -25 186 7 c214 9 240 4 293 -55
45 -50 56 -92 56 -221 l0 -106 48 -6 c123 -15 199 -30 232 -47 89 -45 149
-160 137 -261 -3 -26 -19 -87 -36 -136 -16 -48 -37 -121 -46 -161 -18 -84 -36
-117 -77 -138 -20 -11 -298 -74 -324 -74 -1 0 -13 -19 -26 -41 -17 -30 -63
-72 -173 -153 -355 -265 -526 -387 -559 -401 -49 -21 -132 -18 -184 5 -23 10
-159 98 -302 195 l-260 176 -294 -37 c-256 -32 -299 -35 -326 -24 -56 23 -58
33 -80 361 -23 352 -24 409 -8 443 19 42 55 57 185 76 69 10 126 20 127 22 2
2 11 50 20 108 37 216 105 512 123 532 29 33 48 38 173 53 66 8 130 19 142 26
13 6 122 73 243 147 121 74 236 141 255 148 67 26 123 12 274 -67z m-817 -82
c14 -14 -55 -40 -139 -51 -115 -17 -169 -38 -208 -82 -27 -32 -33 -34 -91 -34
-94 0 -99 -8 -97 -144 l2 -111 5 100 c3 55 10 106 14 113 10 14 83 16 92 2 4
-6 -6 -62 -20 -125 -15 -64 -24 -122 -21 -130 7 -19 -35 -21 -64 -3 -17 11
-23 8 -48 -15 l-29 -28 -46 51 c-25 28 -48 50 -51 48 -2 -2 -16 8 -30 21 -25
23 -25 25 -9 52 10 16 25 32 35 35 10 3 18 9 18 13 0 10 238 245 271 269 19
14 55 18 174 22 166 6 234 5 242 -3z m1063 -233 c0 -7 -8 -10 -20 -7 -22 6
-24 12 -13 39 6 16 7 16 20 -2 7 -10 13 -23 13 -30z m663 -122 c3 -4 40 -5 84
-1 43 3 84 3 91 1 26 -9 13 -64 -28 -118 -40 -51 -61 -64 -110 -64 -15 0 -31
-5 -36 -10 -16 -16 -44 -1 -50 29 -3 14 -10 38 -16 54 -8 20 -7 31 2 42 13 16
31 20 28 8 -4 -21 16 -84 31 -95 14 -12 15 -11 2 5 -17 22 -28 157 -13 157 6
0 13 -3 15 -8z m-43 -28 c0 -12 -29 -34 -44 -34 -12 0 -6 48 7 53 18 6 37 -3
37 -19z m280 19 c0 -5 -9 -19 -20 -33 l-20 -25 0 33 c0 25 4 32 20 32 11 0 20
-3 20 -7z m-2481 -330 c-7 -30 -16 -56 -20 -59 -4 -2 -28 -8 -53 -13 l-46 -8
0 64 c0 42 4 65 13 67 6 2 35 10 62 18 60 17 64 12 44 -69z m2501 -858 c0 -39
-4 -47 -26 -57 -33 -15 -58 -1 -62 35 -5 43 14 67 53 67 35 0 35 0 35 -45z
m-1912 -377 l108 -73 -4 -42 c-3 -31 1 -52 17 -78 22 -37 26 -61 15 -89 -5
-14 -32 -16 -194 -16 l-188 0 -36 42 -36 42 0 137 0 138 53 4 c158 11 146 14
265 -65z"/>
<path d="M1245 2214 c-121 -75 -237 -145 -259 -156 -23 -12 -85 -25 -160 -35
-66 -8 -124 -18 -127 -22 -6 -6 -78 -354 -103 -498 -10 -53 -12 -93 -6 -112 7
-25 3 -40 -19 -81 l-28 -50 -19 35 c-16 30 -23 35 -44 30 -14 -3 -69 -12 -124
-20 -54 -8 -101 -17 -104 -20 -5 -5 36 -676 42 -682 2 -2 104 10 227 26 313
42 371 46 400 31 13 -7 144 -93 290 -190 146 -98 280 -181 298 -185 17 -3 45
-4 61 0 35 8 636 446 693 505 20 22 40 53 43 69 6 28 10 29 86 41 57 9 83 18
91 31 8 13 14 15 24 7 14 -11 71 -6 135 12 35 10 39 16 54 68 13 44 14 63 6
86 -10 25 -8 33 13 58 34 40 68 153 60 200 -14 80 -82 138 -161 138 -23 0 -59
7 -80 16 -39 17 -135 16 -178 -2 -17 -6 -18 -5 -11 12 5 10 11 87 13 170 l3
151 -27 32 -27 32 -179 -3 c-156 -3 -181 -5 -189 -20 -8 -15 -13 -15 -44 -2
-43 18 -167 18 -217 0 -21 -7 -39 -9 -40 -5 -4 13 -387 -20 -420 -36 -14 -7
-30 -9 -35 -4 -4 4 -51 2 -103 -5 -52 -7 -96 -13 -97 -12 -1 0 3 22 9 48 10
41 15 47 42 52 70 13 295 36 518 53 233 17 236 18 222 37 -21 30 -17 65 11 98
27 32 32 75 13 100 -7 8 -66 43 -131 77 -170 88 -154 91 -422 -75z m321 74
c70 -34 57 -63 -28 -63 -77 -1 -99 -22 -128 -127 -13 -44 -28 -82 -34 -84 -6
-2 -78 -10 -161 -19 -82 -8 -160 -18 -172 -21 -20 -6 -23 -3 -23 22 1 27 16
38 181 139 227 139 290 175 308 175 8 0 33 -10 57 -22z m144 -73 c61 -31 66
-39 41 -71 -12 -15 -21 -38 -21 -53 0 -14 -4 -32 -9 -40 -10 -16 -141 -32
-141 -17 0 22 65 206 72 206 5 0 31 -11 58 -25z m-130 -32 c0 -5 -11 -42 -25
-84 l-26 -76 -47 -6 c-26 -3 -48 -4 -49 -3 -9 9 41 144 58 159 21 17 89 24 89
10z m-608 -258 c-8 -40 -8 -40 -57 -43 -80 -4 -92 -9 -98 -41 -6 -26 -11 -30
-57 -36 -28 -4 -53 -5 -56 -3 -2 3 3 41 12 85 l16 81 122 13 c136 16 134 17
118 -56z m1298 -105 l0 -50 -57 -2 c-32 -1 -68 -2 -80 -2 -18 0 -23 -6 -23
-24 0 -24 2 -25 55 -18 l55 6 0 -50 0 -50 -55 0 c-50 0 -55 -2 -55 -23 0 -21
3 -22 79 -19 l79 4 -5 -43 c-8 -73 0 -69 -144 -69 l-132 0 6 83 c4 45 7 130 7
189 l0 107 108 4 c59 1 119 4 135 5 26 2 27 0 27 -48z m-405 18 l24 -11 -27
-47 c-26 -46 -26 -46 -54 -33 -34 17 -73 13 -73 -7 0 -9 20 -21 55 -32 72 -23
110 -64 110 -119 0 -102 -88 -155 -213 -129 -79 16 -80 18 -55 77 21 50 22 51
44 36 24 -15 88 -22 100 -10 15 14 -7 35 -51 47 -25 7 -59 25 -75 40 -25 23
-30 36 -30 74 0 36 6 52 31 81 17 19 45 39 63 45 35 10 115 5 151 -12z m101
-166 c-6 -164 -5 -191 9 -202 25 -20 17 -33 -43 -72 l-57 -37 -22 21 c-21 20
-26 20 -100 8 -43 -7 -91 -15 -108 -17 -16 -3 -55 -12 -85 -21 -30 -8 -82 -17
-115 -19 -70 -5 -105 -26 -109 -66 -4 -41 -12 -42 -44 -5 -27 29 -36 33 -81
32 -31 0 -57 -7 -68 -16 -11 -10 -28 -14 -44 -11 -15 3 -60 -1 -100 -7 -41 -7
-94 -14 -118 -17 -24 -2 -52 -8 -63 -14 -11 -6 -21 -9 -24 -7 -2 2 -5 36 -6
74 l-3 70 -50 -8 c-27 -4 -62 -10 -77 -13 -16 -2 -28 -1 -28 4 0 5 18 12 40
15 22 3 58 9 80 12 28 4 40 11 40 22 0 41 22 91 41 97 31 10 40 -6 28 -49 -15
-54 6 -75 73 -74 42 1 54 6 83 35 38 38 74 43 93 12 13 -20 19 -21 140 -15
116 6 128 8 144 29 10 12 18 28 18 36 0 8 14 1 35 -18 29 -25 44 -31 82 -31
29 0 53 6 64 16 16 15 22 15 51 3 18 -8 65 -14 104 -14 61 1 78 5 114 29 70
46 97 140 57 199 -8 12 -25 32 -37 45 -19 21 -20 25 -8 40 8 9 21 33 28 52 13
34 45 69 64 70 5 0 6 -78 2 -188z m-1028 166 c22 -22 13 -28 -38 -28 -39 0
-48 3 -44 14 9 24 63 33 82 14z m650 -190 l-3 -193 -55 -3 -55 -2 -47 87 -47
88 -1 -92 0 -93 -32 0 c-18 0 -43 -3 -55 -6 l-23 -6 1 133 c1 74 4 161 8 194
l6 60 49 0 49 0 49 -85 48 -84 0 91 0 92 28 4 c15 2 40 5 55 6 l29 1 -4 -192z
m733 71 c1 -52 -2 -118 -5 -147 -5 -36 -3 -58 5 -68 14 -17 11 -21 -16 -26
-17 -3 -19 2 -16 37 1 22 7 42 12 44 6 1 -5 17 -23 35 -30 29 -33 37 -30 81 2
36 10 57 26 75 13 14 27 35 31 48 11 38 15 21 16 -79z m-1080 74 c1 -10 1 -21
1 -24 -1 -3 -2 -32 -3 -63 -2 -52 -4 -56 -16 -40 -7 10 -18 36 -24 57 -5 21
-13 45 -16 53 -3 8 4 17 18 23 34 14 39 13 40 -6z m-53 -146 c27 -84 53 -168
57 -185 6 -30 5 -32 -23 -32 -16 0 -43 -3 -59 -6 -28 -5 -31 -3 -37 26 l-6 33
-52 -7 c-62 -9 -68 -12 -68 -36 0 -25 -7 -28 -72 -36 l-56 -6 54 153 c94 267
78 237 137 242 29 2 57 4 64 5 8 1 32 -58 61 -151z m-234 85 l-6 -51 -79 -7
c-72 -6 -79 -8 -79 -28 0 -21 4 -22 60 -18 l60 4 0 -28 c0 -58 -10 -74 -45
-74 -18 0 -46 -3 -63 -6 -28 -6 -30 -9 -34 -65 -2 -32 -6 -60 -9 -62 -2 -3
-30 -7 -63 -11 -45 -5 -57 -4 -54 6 3 7 16 93 29 190 l23 177 50 5 c128 14
211 22 214 20 2 -1 0 -24 -4 -52z m1565 -280 c71 -38 97 -160 46 -220 l-24
-29 54 -64 c30 -35 55 -67 55 -70 0 -3 -27 -13 -61 -21 l-61 -15 -46 63 c-64
86 -75 81 -57 -28 7 -45 6 -47 -19 -54 -14 -3 -40 -7 -58 -7 -28 -2 -33 2 -36
23 -2 14 -16 99 -32 190 -16 91 -30 176 -32 190 -3 23 2 25 77 41 107 22 154
23 194 1z m91 10 c8 -4 16 -16 18 -27 1 -11 5 -38 8 -60 4 -22 6 -65 5 -95 -3
-85 -3 -93 5 -125 l7 -30 -30 34 -30 34 17 51 c21 59 14 126 -20 183 -11 19
-20 36 -20 39 0 6 22 4 40 -4z m-390 -53 l0 -38 -45 30 c-25 17 -45 34 -45 39
0 9 57 18 78 12 7 -3 12 -21 12 -43z m476 7 c28 -28 34 -41 34 -77 0 -62 -56
-176 -76 -157 -2 3 3 21 11 41 21 51 19 144 -4 190 -24 46 -9 47 35 3z m-571
-25 c85 -38 129 -126 124 -244 -3 -57 -10 -82 -28 -109 -79 -115 -238 -116
-310 -2 -81 127 -52 297 61 353 52 26 100 26 153 2z m-285 -45 c0 -13 3 -37 6
-54 6 -31 6 -31 -46 -38 -51 -7 -52 -7 -46 -36 12 -60 39 -289 34 -293 -5 -6
-110 -26 -114 -23 -1 2 -12 72 -23 157 -11 84 -22 156 -25 158 -3 3 -26 0 -53
-5 -26 -6 -49 -10 -49 -9 -1 1 -4 26 -6 56 l-3 54 145 27 c186 35 180 35 180
6z m-1082 -83 c2 -38 9 -160 17 -272 8 -112 15 -207 15 -211 0 -4 -21 -11 -47
-14 -27 -4 -55 -9 -64 -12 -15 -4 -18 10 -24 113 -4 65 -10 136 -14 157 -6 39
-6 39 -35 -52 -17 -51 -32 -92 -35 -92 -3 0 -26 38 -51 85 -24 46 -45 83 -46
82 -1 -1 4 -69 10 -152 7 -82 10 -153 7 -156 -3 -4 -32 -10 -63 -14 -52 -6
-58 -4 -59 12 0 10 -8 130 -17 266 -9 137 -15 250 -12 252 3 1 32 6 66 10 l61
7 45 -76 44 -76 33 87 c18 49 37 92 41 96 6 7 67 20 115 26 7 1 12 -27 13 -66z
m722 25 c1 -13 11 -110 23 -217 15 -129 19 -194 12 -196 -5 -2 -31 -6 -57 -10
l-46 -6 -67 96 c-37 52 -68 95 -69 95 -2 0 0 -19 4 -42 4 -24 11 -71 14 -105
l7 -62 -48 -7 c-26 -3 -52 -6 -58 -5 -5 0 -20 93 -32 208 -23 218 -23 222 22
223 11 0 29 3 40 6 17 4 33 -12 90 -90 38 -52 70 -94 72 -93 2 3 -13 126 -22
178 -4 27 -1 29 108 48 4 0 7 -9 7 -21z m-371 -115 c1 -37 -2 -43 -20 -43 -12
0 -50 -5 -85 -12 -58 -10 -64 -14 -64 -36 0 -23 2 -24 43 -18 23 4 52 9 65 13
20 5 22 2 22 -41 0 -25 0 -49 0 -53 1 -5 -26 -12 -60 -17 -59 -9 -68 -17 -51
-44 7 -11 22 -11 87 1 91 17 94 15 94 -55 0 -41 -3 -48 -22 -52 -50 -11 -260
-37 -264 -33 -5 5 -46 408 -42 412 2 2 67 15 143 28 158 26 153 28 154 -50z
m724 -20 c22 -96 30 -114 72 -157 50 -52 116 -80 170 -73 71 10 128 41 159 86
31 44 46 52 46 23 0 -10 11 -29 24 -41 21 -20 31 -22 68 -16 52 9 84 29 92 58
l5 21 24 -22 c26 -24 61 -28 120 -11 48 13 58 5 28 -20 -23 -20 -89 -34 -126
-28 -11 2 -29 -2 -41 -10 -11 -7 -47 -18 -80 -24 -32 -6 -69 -17 -81 -25 -12
-8 -43 -14 -68 -14 -75 0 -127 -32 -474 -292 -123 -92 -233 -168 -243 -168
-21 0 -218 128 -218 142 0 7 15 35 36 66 1 2 30 -15 64 -38 116 -79 128 -76
295 53 88 69 113 83 127 76 22 -12 58 5 58 27 0 8 -10 18 -21 22 -19 8 -17 11
29 41 50 32 51 32 111 20 45 -10 64 -10 72 -2 14 14 -46 32 -114 35 -39 2 -52
-3 -93 -36 -177 -140 -328 -246 -350 -246 -14 0 -65 27 -115 61 -75 50 -88 63
-78 75 19 24 93 18 136 -12 46 -31 71 -26 133 25 40 33 55 39 134 50 67 10 85
16 72 23 -16 9 -34 8 -134 -8 -18 -3 -60 -21 -93 -40 -39 -23 -66 -33 -79 -29
-11 4 -18 10 -16 13 9 15 -112 13 -149 -2 -25 -11 -42 -13 -54 -6 -19 10 -84
3 -114 -12 -10 -5 -46 -11 -80 -12 -35 -2 -77 -11 -94 -20 -25 -13 -41 -14
-81 -6 -27 5 -60 7 -73 5 -13 -2 -49 -6 -79 -9 -30 -3 -116 -13 -190 -22 -74
-10 -160 -18 -190 -19 -53 0 -54 1 -57 30 -8 108 -8 165 -1 165 4 0 8 -17 8
-39 0 -50 18 -99 40 -111 21 -11 113 2 135 20 11 9 15 33 15 92 l0 80 26 -17
c23 -15 27 -15 50 0 13 8 24 14 25 13 0 -2 3 -28 6 -58 2 -30 11 -66 20 -79
14 -22 19 -23 75 -17 38 5 68 14 81 27 18 17 22 17 37 4 14 -13 29 -13 96 -5
43 6 102 13 129 17 28 3 59 11 70 18 13 7 43 10 82 7 56 -4 64 -2 87 21 14 15
26 35 26 47 0 27 6 25 47 -10 32 -28 39 -30 86 -25 62 7 96 37 91 82 -3 31
-11 112 -19 189 -6 57 7 77 42 68 22 -6 33 -46 49 -179 9 -68 8 -64 19 -88 11
-27 42 -35 94 -25 75 14 84 29 77 126 -3 46 -7 86 -10 90 -8 14 -17 103 -11
112 14 22 24 7 38 -57z m-708 -90 c3 -27 8 -58 10 -69 4 -19 -10 -34 -31 -34
-2 0 -4 27 -4 59 0 33 -5 63 -11 67 -8 4 -7 9 2 15 24 15 28 10 34 -38z m-812
-43 c3 -44 2 -67 -3 -55 -8 19 -14 143 -6 134 2 -2 6 -38 9 -79z m1951 -152
c-11 -37 -30 -54 -219 -191 -99 -72 -223 -163 -275 -202 -162 -122 -200 -145
-235 -145 -24 0 -63 20 -144 73 l-111 73 22 21 21 22 86 -58 c101 -68 122 -76
153 -60 12 7 158 114 323 238 310 234 397 286 379 229z m-977 -158 c11 -16 9
-23 -11 -42 -13 -13 -26 -34 -30 -48 -3 -14 -18 -38 -32 -54 -35 -39 -47 -21
-40 61 3 35 1 65 -4 68 -22 14 -7 24 38 28 26 2 52 4 57 5 6 1 16 -7 22 -18z
m-161 -21 c18 -17 21 -28 17 -62 -3 -23 -7 -44 -9 -46 -2 -2 -39 20 -83 50
-44 29 -78 56 -75 59 3 2 31 8 62 11 31 3 59 7 61 8 3 0 15 -8 27 -20z m166
-134 c10 -22 9 -29 -10 -48 -17 -17 -26 -19 -39 -11 -25 16 -26 28 -3 57 27
34 37 34 52 2z"/>
<path d="M1067 1660 c-13 -37 -27 -83 -25 -85 2 -1 15 1 29 4 25 6 25 7 13 51
-6 26 -14 39 -17 30z"/>
<path d="M2397 1353 c-20 -3 -27 -9 -23 -21 2 -9 7 -34 10 -54 6 -36 7 -36 39
-27 33 9 57 33 57 56 0 15 -36 54 -47 52 -5 -1 -21 -4 -36 -6z"/>
<path d="M2004 1269 c-26 -29 -25 -112 1 -157 36 -61 105 -53 125 15 14 46 0
113 -31 144 -25 25 -71 24 -95 -2z m83 -49 c20 -39 17 -97 -6 -110 -11 -5 -22
-10 -25 -10 -12 0 -36 61 -36 93 0 58 42 76 67 27z"/>
<path d="M390 1114 c8 -8 17 -32 21 -52 l8 -37 -2 40 c-1 41 -12 65 -29 65 -6
0 -5 -7 2 -16z"/>
<path d="M319 1611 c-19 -16 -22 -22 -11 -32 9 -10 12 -10 12 -1 0 7 6 12 14
12 7 0 16 9 19 20 6 25 -4 25 -34 1z"/>
<path d="M772 318 c-7 -7 -12 -42 -12 -88 0 -63 3 -80 19 -94 11 -10 28 -16
38 -14 15 3 18 15 21 86 2 45 -2 91 -8 102 -12 22 -40 26 -58 8z m48 -27 c13
-25 13 -131 0 -151 -7 -12 -13 -12 -27 -4 -14 9 -19 27 -21 79 -2 37 -1 74 2
82 8 19 34 16 46 -6z"/>
<path d="M1752 2815 c3 -18 12 -20 106 -23 95 -3 102 -4 102 -23 0 -11 -4 -28
-10 -38 -10 -21 -12 -47 -11 -208 0 -62 -2 -119 -5 -128 -4 -10 0 -15 10 -15
14 0 16 15 16 101 l0 100 24 -27 c18 -22 32 -28 67 -29 l44 -1 7 -104 7 -105
-31 -28 c-24 -23 -38 -28 -71 -27 -56 2 -67 -1 -37 -9 21 -6 26 -15 34 -59 8
-46 7 -54 -10 -67 -19 -14 -18 -14 1 -15 12 0 44 23 75 55 l54 55 2 158 2 157
26 3 c14 2 26 7 26 12 0 4 57 66 128 136 84 84 137 130 157 135 29 7 29 7 -9
8 -36 1 -46 -6 -178 -134 l-139 -135 -55 0 c-31 0 -64 5 -75 10 -27 15 -49 63
-49 108 0 35 7 45 59 95 l60 57 -39 0 c-21 0 -43 -6 -50 -15 -7 -8 -16 -15
-21 -15 -5 0 -9 7 -9 15 0 8 -4 15 -10 15 -5 0 -10 -7 -10 -15 0 -24 -165 -22
-180 3 -10 15 -10 15 -8 -3z m328 -584 c0 -5 -8 -19 -18 -31 -28 -35 -52 -10
-29 28 9 14 47 17 47 3z"/>
<path d="M2180 2784 c-53 -54 -110 -83 -162 -84 -30 0 -38 -4 -38 -17 0 -12 3
-14 8 -7 4 7 18 11 32 10 49 -4 105 24 168 84 35 33 58 60 50 60 -7 -1 -33
-21 -58 -46z"/>
<path d="M2518 2822 c17 -11 -30 -76 -92 -127 -34 -28 -46 -44 -46 -65 0 -41
20 -53 76 -44 48 7 67 21 111 79 l22 30 0 -58 c1 -72 14 -98 88 -167 98 -93
110 -99 194 -95 104 4 129 13 129 42 0 15 -2 14 -18 0 -14 -13 -38 -17 -100
-17 l-82 0 -76 70 c-42 38 -83 78 -90 89 -18 24 -23 146 -7 162 28 28 163 27
163 -1 0 -6 7 -10 15 -10 8 0 15 -6 15 -14 0 -8 35 -46 77 -86 43 -39 83 -81
90 -93 12 -22 12 -21 13 6 0 15 -8 40 -17 55 -17 26 -17 27 2 13 11 -8 -20 27
-70 78 -49 51 -107 101 -127 112 -44 23 -105 25 -153 5 -49 -21 -44 -28 6 -11
23 8 55 15 71 15 32 0 92 -23 102 -39 4 -5 -10 -3 -30 5 -66 28 -166 2 -236
-62 -58 -52 -59 -33 -2 22 l49 46 -53 -43 c-89 -74 -124 -99 -139 -99 -19 0 8
52 41 77 13 11 48 45 76 76 l52 57 -33 0 c-21 0 -29 -3 -21 -8z m10 -181 c-15
-19 -36 -31 -62 -35 -52 -9 -57 -1 -9 14 21 7 49 21 62 31 33 27 36 24 9 -10z"/>
<path d="M1615 2680 c-4 -6 43 -10 134 -10 82 0 142 4 146 10 4 6 -43 10 -134
10 -82 0 -142 -4 -146 -10z"/>
<path d="M2790 2617 c0 -19 45 -87 77 -118 32 -29 34 -29 11 -4 -14 17 -40 52
-57 79 -17 28 -31 47 -31 43z"/>
<path d="M2640 2590 c0 -7 28 -40 63 -74 34 -34 44 -41 21 -16 -22 25 -50 58
-62 74 -12 16 -22 23 -22 16z"/>
<path d="M2220 2553 c19 -14 53 -19 135 -23 61 -3 119 -10 130 -14 20 -8 19
-8 0 7 -14 10 -57 17 -130 22 -61 4 -118 11 -127 16 -29 15 -34 10 -8 -8z"/>
<path d="M2190 2543 c0 -5 27 -35 60 -67 l61 -59 -28 -31 -28 -31 28 25 29 25
67 -70 c43 -45 71 -84 78 -110 7 -22 19 -49 27 -60 9 -12 4 12 -11 60 -25 78
-29 83 -147 202 -113 115 -136 134 -136 116z"/>
<path d="M2510 2524 c0 -6 14 -23 31 -40 49 -45 59 -81 59 -200 l0 -106 -39
-39 c-29 -30 -47 -39 -72 -39 -19 0 -44 -3 -56 -6 -17 -5 -23 -2 -23 10 0 9
-3 15 -7 14 -5 -1 -26 4 -48 10 -45 13 -220 15 -280 3 -53 -11 -36 -13 130
-15 124 -1 146 -4 193 -25 34 -15 63 -38 82 -64 33 -45 39 -43 14 4 -8 17 -14
32 -12 33 2 1 24 14 50 29 66 38 91 92 86 192 l-3 75 55 0 c55 0 55 -1 130
-74 l76 -74 -4 -107 c-3 -70 -1 -110 7 -118 8 -8 11 17 11 94 l0 105 55 54
c50 49 55 58 54 95 -2 33 -3 35 -6 10 -3 -18 -22 -48 -50 -77 -52 -53 -69 -52
-102 3 -10 16 -20 27 -23 24 -2 -2 -22 13 -43 35 -36 36 -44 40 -91 40 -55 0
-68 9 -79 51 -7 26 -95 122 -95 103z"/>
<path d="M860 2493 c-14 -3 -81 -18 -150 -35 -105 -26 -142 -31 -228 -29 -92
2 -108 0 -159 -24 -31 -14 -54 -27 -51 -30 2 -3 24 5 49 17 38 20 61 23 169
24 127 1 149 3 230 29 25 8 63 17 85 21 54 9 65 12 100 23 27 8 28 9 5 9 -14
0 -36 -3 -50 -5z"/>
<path d="M24 2474 c-18 -15 -18 -15 6 -8 79 23 127 5 176 -66 29 -42 32 -28 4
18 -39 64 -139 94 -186 56z"/>
<path d="M2985 2460 c-3 -5 -14 -10 -23 -10 -9 0 -30 -7 -46 -15 -36 -19 -57
-19 -104 0 -36 15 -36 15 -19 -2 33 -33 207 -13 207 24 0 15 -6 17 -15 3z"/>
<path d="M2661 2214 c-25 -21 -31 -33 -31 -65 0 -49 35 -89 77 -88 l28 1 -28
8 c-40 12 -55 27 -62 61 -13 57 42 106 98 87 50 -18 62 -75 25 -124 l-22 -29
27 24 c45 41 38 110 -14 136 -40 21 -63 19 -98 -11z"/>
<path d="M2982 2168 c-17 -17 -15 -38 3 -38 9 0 15 9 15 25 0 29 -1 30 -18 13z"/>
<path d="M2835 1705 l-30 -37 -37 22 c-28 16 -41 19 -55 11 -17 -10 -17 -10 0
-11 38 0 128 -53 167 -97 31 -35 40 -41 40 -26 0 11 -16 38 -35 60 -19 23 -35
44 -35 47 0 17 30 2 67 -33 50 -46 83 -58 83 -31 0 10 -9 21 -20 25 -11 3 -41
29 -68 56 l-47 50 -30 -36z"/>
<path d="M2968 1333 c2 -35 -1 -77 -7 -93 -9 -28 -8 -30 15 -30 20 0 24 5 24
28 0 15 -5 33 -11 39 -9 9 -9 23 0 57 14 56 14 53 -6 58 -16 4 -18 -2 -15 -59z"/>
<path d="M2941 809 c16 -18 32 -29 35 -26 10 10 -28 57 -46 57 -15 0 -13 -6
11 -31z"/>
<path d="M2568 653 c-34 -4 -38 -7 -37 -31 2 -24 2 -24 6 -4 3 17 11 22 33 22
24 0 29 -5 33 -27 3 -23 4 -21 6 10 0 20 0 36 -1 35 -2 -1 -20 -3 -40 -5z"/>
<path d="M2690 613 c0 -16 59 -63 78 -63 14 1 13 3 -3 12 -11 6 -32 22 -47 36
-16 14 -28 21 -28 15z"/>
<path d="M7 604 c-4 -4 -7 -18 -7 -31 0 -26 27 -32 37 -7 6 17 -19 49 -30 38z"/>
<path d="M2323 485 c-66 -28 -22 -24 52 6 20 8 20 8 0 8 -11 0 -35 -6 -52 -14z"/>
<path d="M2935 416 c-56 -63 -59 -64 -118 -71 l-60 -7 -108 -107 -108 -107
-33 18 c-25 13 -57 17 -135 18 -94 0 -104 2 -132 26 -30 25 -31 29 -31 105 0
51 -4 78 -10 74 -17 -11 -12 -143 7 -175 24 -41 46 -48 168 -55 73 -5 115 -12
126 -21 8 -8 22 -14 30 -14 8 0 20 -5 27 -12 9 -9 12 -9 12 -1 0 7 -4 15 -10
18 -12 7 193 205 215 205 44 2 94 15 118 32 l27 19 0 -60 c0 -33 5 -63 10 -66
6 -4 10 28 10 89 0 79 3 96 15 96 8 0 15 5 15 11 0 6 7 9 15 5 11 -4 15 1 15
19 0 14 -2 25 -4 25 -3 0 -30 -29 -61 -64z"/>
<path d="M2436 439 c44 -46 132 -111 144 -107 15 5 -137 138 -157 138 -13 0
-9 -8 13 -31z"/>
<path d="M2595 419 c-9 -17 -14 -36 -12 -42 2 -7 10 2 18 18 8 16 25 35 39 42
l25 13 -27 0 c-21 0 -31 -8 -43 -31z"/>
<path d="M2993 355 c0 -33 2 -45 4 -27 2 18 2 45 0 60 -2 15 -4 0 -4 -33z"/>
<path d="M2276 378 c3 -4 1 -24 -5 -43 -5 -19 -6 -35 -3 -35 27 1 52 16 58 34
3 11 14 30 23 41 11 14 7 13 -11 -4 -15 -13 -25 -28 -22 -32 2 -4 -5 -13 -16
-19 -23 -12 -27 1 -11 43 7 18 6 24 -4 24 -8 0 -12 -4 -9 -9z"/>
<path d="M2398 370 c30 -13 37 -35 24 -77 -7 -22 -7 -32 -1 -26 5 5 12 26 16
46 7 42 -9 67 -41 66 -20 0 -20 0 2 -9z"/>
<path d="M2351 339 c-1 -16 5 -29 14 -33 22 -8 18 -25 -7 -36 -23 -9 -23 -9
-2 -9 27 -1 39 27 20 48 -8 9 -16 25 -19 36 -4 16 -5 14 -6 -6z"/>
<path d="M2111 338 c-1 -10 -4 -18 -8 -18 -15 0 -2 -174 13 -191 8 -9 18 -40
23 -68 4 -28 12 -55 16 -59 14 -13 -7 92 -26 130 -24 46 -27 97 -5 78 8 -6 17
-21 19 -33 4 -19 4 -19 6 4 0 15 -8 34 -19 44 -20 18 -28 80 -11 87 4 2 5 12
0 23 -6 17 -8 17 -8 3z"/>
<path d="M570 305 c-23 -25 -26 -25 -186 -25 -131 0 -164 3 -174 15 -7 8 -17
15 -23 15 -6 0 0 -11 13 -25 23 -25 26 -25 179 -25 l156 0 33 31 c29 27 38 39
29 39 -2 0 -14 -11 -27 -25z"/>
<path d="M2451 239 c-1 -27 19 -51 54 -63 14 -5 10 2 -12 21 -17 15 -34 37
-36 48 -4 16 -5 14 -6 -6z"/>
<path d="M2990 241 c0 -38 -11 -51 -46 -51 -23 0 -51 -12 -85 -36 -49 -34
-159 -139 -159 -151 0 -7 24 12 109 91 69 63 112 86 161 86 28 0 30 2 30 40 0
22 -2 40 -5 40 -3 0 -5 -9 -5 -19z"/>
<path d="M393 183 c-18 -9 -33 -23 -33 -32 0 -11 5 -10 23 6 12 11 31 25 42
31 31 18 4 13 -32 -5z"/>
<path d="M443 119 c1 -14 -4 -34 -12 -43 -8 -9 -11 -19 -7 -23 3 -3 6 -1 6 5
0 7 11 12 23 12 22 0 44 17 62 48 6 11 3 12 -13 3 -30 -16 -50 -14 -56 7 -2 9
-4 5 -3 -9z"/>
<path d="M364 58 l1 -43 73 -3 c58 -2 72 0 72 12 0 8 -5 18 -10 21 -6 4 -9 1
-8 -7 2 -9 -14 -14 -59 -16 l-62 -3 -4 41 -4 40 1 -42z"/>
<path d="M2960 76 c-19 -7 -55 -25 -80 -42 -44 -28 -45 -29 -17 -32 16 -2 37
5 53 17 35 28 52 27 28 -1 -14 -16 -10 -15 19 6 20 16 37 37 37 47 0 11 -1 19
-2 19 -2 -1 -19 -7 -38 -14z"/>
<path d="M1 58 c0 -16 55 -61 69 -56 5 2 -9 18 -30 36 -22 18 -40 27 -39 20z"/>
<path d="M2196 62 c41 -35 83 -61 78 -47 -5 13 7 15 79 15 47 0 88 3 90 8 3 4
-40 6 -95 4 -77 -3 -105 0 -123 12 -25 17 -46 22 -29 8z"/>
</g>
</svg>
